<svg width="32" height="32" viewBox="0 0 32 32" fill="none" xmlns="http://www.w3.org/2000/svg">
<path d="M15.9998 29.3346C23.3636 29.3346 29.3332 23.3651 29.3332 16.0013C29.3332 8.63751 23.3636 2.66797 15.9998 2.66797C8.63604 2.66797 2.6665 8.63751 2.6665 16.0013C2.6665 23.3651 8.63604 29.3346 15.9998 29.3346Z" stroke="#DC9B45" stroke-width="1.5" stroke-linecap="round" stroke-linejoin="round"/>
<g opacity="0.4">
<path d="M10.666 4H11.9993C9.39932 11.7867 9.39932 20.2133 11.9993 28H10.666" stroke="#DC9B45" stroke-width="1.5" stroke-linecap="round" stroke-linejoin="round"/>
<path d="M20 4C22.6 11.7867 22.6 20.2133 20 28" stroke="#DC9B45" stroke-width="1.5" stroke-linecap="round" stroke-linejoin="round"/>
<path d="M4 21.3333V20C11.7867 22.6 20.2133 22.6 28 20V21.3333" stroke="#DC9B45" stroke-width="1.5" stroke-linecap="round" stroke-linejoin="round"/>
<path d="M4 12.0008C11.7867 9.40078 20.2133 9.40078 28 12.0008" stroke="#DC9B45" stroke-width="1.5" stroke-linecap="round" stroke-linejoin="round"/>
</g>
</svg>
