<svg width="32" height="32" viewBox="0 0 32 32" fill="none" xmlns="http://www.w3.org/2000/svg">
<path d="M13.9869 2.97406L7.33354 5.46739C5.8002 6.04072 4.54688 7.85404 4.54688 9.49404V19.4007C4.54688 20.974 5.58689 23.0407 6.85356 23.9874L12.5869 28.2674C14.4669 29.6807 17.5602 29.6807 19.4402 28.2674L25.1735 23.9874C26.4402 23.0407 27.4802 20.974 27.4802 19.4007V9.49404C27.4802 7.85404 26.2269 6.04072 24.6935 5.46739L18.0402 2.97406C16.9069 2.56073 15.0935 2.56073 13.9869 2.97406Z" stroke="#DC9B45" stroke-width="1.5" stroke-linecap="round" stroke-linejoin="round"/>
<path d="M15.9999 14.5605C15.9466 14.5605 15.8799 14.5605 15.8266 14.5605C14.5732 14.5205 13.5732 13.4805 13.5732 12.2139C13.5732 10.9205 14.6266 9.86719 15.9199 9.86719C17.2133 9.86719 18.2666 10.9205 18.2666 12.2139C18.2533 13.4939 17.2533 14.5205 15.9999 14.5605Z" stroke="#DC9B45" stroke-width="1.5" stroke-linecap="round" stroke-linejoin="round"/>
<path d="M13.3467 18.2925C12.0667 19.1458 12.0667 20.5458 13.3467 21.3991C14.8001 22.3725 17.1867 22.3725 18.6401 21.3991C19.9201 20.5458 19.9201 19.1458 18.6401 18.2925C17.2001 17.3192 14.8134 17.3192 13.3467 18.2925Z" stroke="#DC9B45" stroke-width="1.5" stroke-linecap="round" stroke-linejoin="round"/>
</svg>
