<svg width="9" height="14" viewBox="0 0 9 14" fill="none" xmlns="http://www.w3.org/2000/svg">
<path d="M5.88095 2.33333H7.73809C7.90895 2.33333 8.04762 2.20267 8.04762 2.04167V0.291667C8.04762 0.130667 7.90895 0 7.73809 0H5.88095C4.004 0 2.47619 1.43908 2.47619 3.20833V5.25H0.309524C0.138667 5.25 0 5.38067 0 5.54167V7.29167C0 7.45267 0.138667 7.58333 0.309524 7.58333H2.47619V13.7083C2.47619 13.8693 2.61486 14 2.78571 14H4.64286C4.81371 14 4.95238 13.8693 4.95238 13.7083V7.58333H7.11905C7.25214 7.58333 7.37038 7.50283 7.41309 7.38383L8.03214 5.63383C8.06371 5.54517 8.04762 5.44717 7.98943 5.37075C7.93062 5.29492 7.83776 5.25 7.73809 5.25H4.95238V3.20833C4.95238 2.72592 5.369 2.33333 5.88095 2.33333Z" fill="#FBF3E8"/>
</svg>
