<svg width="14" height="14" viewBox="0 0 14 14" fill="none" xmlns="http://www.w3.org/2000/svg">
<path d="M6.99935 5.55464C6.71322 5.55464 6.43353 5.63948 6.19562 5.79844C5.95772 5.9574 5.7723 6.18334 5.6628 6.44769C5.55331 6.71203 5.52466 7.00291 5.58048 7.28353C5.6363 7.56416 5.77408 7.82193 5.9764 8.02425C6.17872 8.22657 6.43649 8.36435 6.71712 8.42017C6.99774 8.47599 7.28862 8.44734 7.55296 8.33785C7.81731 8.22835 8.04325 8.04293 8.20221 7.80503C8.36117 7.56712 8.44601 7.28743 8.44601 7.0013C8.44601 6.81132 8.4086 6.6232 8.33589 6.44769C8.26319 6.27217 8.15663 6.11269 8.0223 5.97835C7.88796 5.84402 7.72848 5.73746 7.55296 5.66476C7.37745 5.59205 7.18933 5.55464 6.99935 5.55464ZM12.7918 4.12547C12.7888 3.67499 12.7058 3.22864 12.5468 2.80714C12.4298 2.4987 12.2486 2.21861 12.0153 1.98533C11.782 1.75205 11.5019 1.57089 11.1935 1.4538C10.772 1.29482 10.3257 1.21187 9.87518 1.2088C9.12268 1.16797 8.90102 1.16797 6.99935 1.16797C5.09768 1.16797 4.87602 1.16797 4.12352 1.2088C3.67304 1.21187 3.22668 1.29482 2.80518 1.4538C2.49675 1.57089 2.21665 1.75205 1.98337 1.98533C1.75009 2.21861 1.56893 2.4987 1.45185 2.80714C1.29287 3.22864 1.20992 3.67499 1.20685 4.12547C1.16602 4.87797 1.16602 5.09964 1.16602 7.0013C1.16602 8.90297 1.16602 9.12464 1.20685 9.87714C1.21313 10.3292 1.29597 10.7769 1.45185 11.2013C1.56842 11.5083 1.74942 11.7868 1.98268 12.018C2.21496 12.2526 2.49566 12.4338 2.80518 12.5488C3.22668 12.7078 3.67304 12.7907 4.12352 12.7938C4.87602 12.8346 5.09768 12.8346 6.99935 12.8346C8.90102 12.8346 9.12268 12.8346 9.87518 12.7938C10.3257 12.7907 10.772 12.7078 11.1935 12.5488C11.503 12.4338 11.7837 12.2526 12.016 12.018C12.2493 11.7868 12.4303 11.5083 12.5468 11.2013C12.7057 10.7777 12.7886 10.3295 12.7918 9.87714C12.8327 9.12464 12.8327 8.90297 12.8327 7.0013C12.8327 5.09964 12.8327 4.87797 12.7918 4.12547ZM11.3102 8.79213C11.2915 9.15211 11.2146 9.50669 11.0827 9.84214C10.9694 10.122 10.8011 10.3761 10.5876 10.5896C10.3742 10.803 10.12 10.9714 9.84018 11.0846C9.50156 11.2092 9.14501 11.2782 8.78435 11.2888C8.32352 11.2888 8.20102 11.2888 6.99935 11.2888C5.79768 11.2888 5.67518 11.2888 5.21435 11.2888C4.85369 11.2782 4.49713 11.2092 4.15852 11.0846C3.86924 10.9771 3.60801 10.8056 3.39435 10.583C3.18299 10.3737 3.01976 10.1209 2.91602 9.84214C2.79092 9.50387 2.72387 9.1469 2.71768 8.7863C2.71768 8.32547 2.71768 8.20297 2.71768 7.0013C2.71768 5.79964 2.71768 5.67713 2.71768 5.2163C2.72387 4.8557 2.79092 4.49873 2.91602 4.16047C3.02351 3.8712 3.19501 3.60996 3.41768 3.3963C3.62788 3.18608 3.88042 3.02302 4.15852 2.91797C4.49713 2.79337 4.85369 2.72442 5.21435 2.7138C5.67518 2.7138 5.79768 2.7138 6.99935 2.7138C8.20102 2.7138 8.32352 2.7138 8.78435 2.7138C9.14501 2.72442 9.50156 2.79337 9.84018 2.91797C10.1295 3.02547 10.3907 3.19696 10.6043 3.41964C10.8157 3.62891 10.9789 3.88171 11.0827 4.16047C11.2073 4.49909 11.2762 4.85564 11.2868 5.2163C11.2868 5.67713 11.2868 5.79964 11.2868 7.0013C11.2868 8.20297 11.3277 8.32547 11.3102 8.7863V8.79213ZM10.3768 4.45214C10.3074 4.26371 10.1979 4.09259 10.0559 3.95059C9.91389 3.80859 9.74277 3.69909 9.55435 3.62964C9.29562 3.53995 9.02313 3.49651 8.74935 3.5013C8.29435 3.5013 8.16602 3.5013 6.99935 3.5013C5.83268 3.5013 5.70435 3.5013 5.24935 3.5013C4.97417 3.50399 4.70164 3.55534 4.44435 3.65297C4.25881 3.71927 4.0895 3.8243 3.94769 3.96109C3.80588 4.09787 3.6948 4.26327 3.62185 4.4463C3.53714 4.7061 3.49575 4.97807 3.49935 5.2513C3.49935 5.7063 3.49935 5.83464 3.49935 7.0013C3.49935 8.16797 3.49935 8.2963 3.49935 8.7513C3.50513 9.02617 3.55638 9.29818 3.65102 9.5563C3.72047 9.74473 3.82997 9.91584 3.97197 10.0578C4.11397 10.1998 4.28509 10.3093 4.47352 10.3788C4.7224 10.4703 4.98431 10.5215 5.24935 10.5305C5.70435 10.5305 5.83268 10.5305 6.99935 10.5305C8.16602 10.5305 8.29435 10.5305 8.74935 10.5305C9.02453 10.5278 9.29706 10.4764 9.55435 10.3788C9.74277 10.3093 9.91389 10.1998 10.0559 10.0578C10.1979 9.91584 10.3074 9.74473 10.3768 9.5563C10.4745 9.29901 10.5258 9.02648 10.5285 8.7513C10.5285 8.2963 10.5285 8.16797 10.5285 7.0013C10.5285 5.83464 10.5285 5.7063 10.5285 5.2513C10.5287 4.97585 10.4772 4.70281 10.3768 4.4463V4.45214ZM6.99935 9.22964C6.70699 9.22964 6.41751 9.17196 6.14749 9.0599C5.87746 8.94784 5.63219 8.78362 5.42574 8.57662C5.21928 8.36962 5.0557 8.12393 4.94435 7.85361C4.833 7.58329 4.77608 7.29366 4.77685 7.0013C4.77685 6.56033 4.90769 6.12927 5.1528 5.7627C5.39791 5.39613 5.74627 5.11052 6.15379 4.94204C6.5613 4.77355 7.00964 4.72977 7.44206 4.81622C7.87447 4.90268 8.27151 5.11548 8.58292 5.42771C8.89432 5.73993 9.10609 6.13752 9.19141 6.57016C9.27673 7.0028 9.23177 7.45103 9.06221 7.8581C8.89266 8.26517 8.60614 8.61278 8.23893 8.85693C7.87172 9.10108 7.44032 9.23079 6.99935 9.22964ZM9.33268 5.21047C9.20373 5.19682 9.0844 5.13593 8.99766 5.03953C8.91093 4.94314 8.86295 4.81806 8.86295 4.68839C8.86295 4.55871 8.91093 4.43363 8.99766 4.33724C9.0844 4.24084 9.20373 4.17995 9.33268 4.1663C9.46163 4.17995 9.58097 4.24084 9.6677 4.33724C9.75443 4.43363 9.80242 4.55871 9.80242 4.68839C9.80242 4.81806 9.75443 4.94314 9.6677 5.03953C9.58097 5.13593 9.46163 5.19682 9.33268 5.21047Z" fill="#FBF3E8"/>
</svg>
