<svg width="14" height="14" viewBox="0 0 14 14" fill="none" xmlns="http://www.w3.org/2000/svg">
<path d="M5.04 3.64C5.04 3.80614 4.99074 3.96854 4.89843 4.10668C4.80613 4.24482 4.67494 4.35248 4.52145 4.41606C4.36796 4.47964 4.19907 4.49627 4.03612 4.46386C3.87318 4.43145 3.72351 4.35145 3.60603 4.23397C3.48855 4.11649 3.40855 3.96682 3.37614 3.80388C3.34373 3.64093 3.36036 3.47204 3.42394 3.31855C3.48752 3.16506 3.59518 3.03387 3.73332 2.94157C3.87146 2.84926 4.03386 2.8 4.2 2.8C4.42278 2.8 4.63644 2.8885 4.79397 3.04603C4.9515 3.20356 5.04 3.41722 5.04 3.64ZM14 1.12V12.88C14 13.177 13.882 13.4619 13.672 13.672C13.4619 13.882 13.177 14 12.88 14H1.12C0.822958 14 0.538081 13.882 0.32804 13.672C0.118 13.4619 0 13.177 0 12.88V1.12C0 0.822958 0.118 0.538081 0.32804 0.32804C0.538081 0.118 0.822958 0 1.12 0H12.88C13.177 0 13.4619 0.118 13.672 0.32804C13.882 0.538081 14 0.822958 14 1.12ZM12.88 12.88V1.12H1.12V12.88H12.88ZM4.2 5.32C4.05148 5.32 3.90904 5.379 3.80402 5.48402C3.699 5.58904 3.64 5.73148 3.64 5.88V10.36C3.64 10.5085 3.699 10.651 3.80402 10.756C3.90904 10.861 4.05148 10.92 4.2 10.92C4.34852 10.92 4.49096 10.861 4.59598 10.756C4.701 10.651 4.76 10.5085 4.76 10.36V5.88C4.76 5.73148 4.701 5.58904 4.59598 5.48402C4.49096 5.379 4.34852 5.32 4.2 5.32ZM8.4 5.32C7.89587 5.31997 7.40331 5.47115 6.986 5.754C6.95538 5.61963 6.87628 5.50127 6.76385 5.42157C6.65142 5.34187 6.51354 5.30642 6.37661 5.32202C6.23968 5.33762 6.11331 5.40317 6.02168 5.50612C5.93006 5.60906 5.87961 5.74218 5.88 5.88V10.36C5.88 10.5085 5.939 10.651 6.04402 10.756C6.14904 10.861 6.29148 10.92 6.44 10.92C6.58852 10.92 6.73096 10.861 6.83598 10.756C6.941 10.651 7 10.5085 7 10.36V7.84C7 7.4687 7.1475 7.1126 7.41005 6.85005C7.6726 6.5875 8.0287 6.44 8.4 6.44C8.7713 6.44 9.1274 6.5875 9.38995 6.85005C9.6525 7.1126 9.8 7.4687 9.8 7.84V10.36C9.8 10.5085 9.859 10.651 9.96402 10.756C10.069 10.861 10.2115 10.92 10.36 10.92C10.5085 10.92 10.651 10.861 10.756 10.756C10.861 10.651 10.92 10.5085 10.92 10.36V7.84C10.92 7.17165 10.6545 6.53068 10.1819 6.05809C9.70932 5.5855 9.06835 5.32 8.4 5.32Z" fill="white"/>
</svg>
