<svg width="40" height="40" viewBox="0 0 40 40" fill="none" xmlns="http://www.w3.org/2000/svg">
<path d="M7.5 22.7154V24.1654C7.5 31.032 13.1167 36.6654 20 36.6654C26.8667 36.6654 32.5 31.0487 32.5 24.1654V15.832C32.5 8.9487 26.8833 3.33203 20 3.33203C13.1167 3.33203 7.5 8.9487 7.5 15.832" stroke="white" stroke-width="1.5" stroke-linecap="round" stroke-linejoin="round"/>
<path d="M20 18.3333C18.6167 18.3333 17.5 17.2167 17.5 15.8333V12.5C17.5 11.1167 18.6167 10 20 10C21.3667 10 22.5 11.1167 22.5 12.5V15.8333C22.5 17.2167 21.3667 18.3333 20 18.3333Z" stroke="white" stroke-width="1.5" stroke-linecap="round" stroke-linejoin="round"/>
<path d="M20 9.9987V3.33203" stroke="white" stroke-width="1.5" stroke-linecap="round" stroke-linejoin="round"/>
</svg>
