<svg width="14" height="17" viewBox="0 0 14 17" fill="none" xmlns="http://www.w3.org/2000/svg">
<path d="M11.1071 2.51786C10.4968 1.82109 10.1605 0.926279 10.1607 0H7.40179V11.0714C7.38051 11.6706 7.12756 12.2381 6.69622 12.6544C6.26487 13.0708 5.68879 13.3035 5.08929 13.3036C3.82143 13.3036 2.76786 12.2679 2.76786 10.9821C2.76786 9.44643 4.25 8.29464 5.77679 8.76786V5.94643C2.69643 5.53571 0 7.92857 0 10.9821C0 13.9554 2.46429 16.0714 5.08036 16.0714C7.88393 16.0714 10.1607 13.7946 10.1607 10.9821V5.36607C11.2795 6.16951 12.6226 6.60058 14 6.59821V3.83929C14 3.83929 12.3214 3.91964 11.1071 2.51786Z" fill="white"/>
</svg>
