<svg width="14" height="12" viewBox="0 0 14 12" fill="none" xmlns="http://www.w3.org/2000/svg">
<path d="M13.9205 1.44064C13.828 1.33609 13.6788 1.30979 13.5565 1.37428C13.4804 1.41435 13.3374 1.46694 13.1675 1.5189C13.3818 1.2259 13.5541 0.897833 13.6301 0.602949C13.663 0.475855 13.6149 0.341874 13.5102 0.266119C13.4055 0.190989 13.2662 0.190989 13.1615 0.266119C12.9965 0.384448 12.2003 0.740061 11.697 0.855259C10.5593 -0.169632 9.23542 -0.276066 7.85918 0.550359C6.74041 1.22214 6.49694 2.58825 6.54441 3.42093C3.98366 3.16737 2.39195 1.77622 1.49596 0.624862C1.43326 0.544098 1.33222 0.501525 1.23726 0.507785C1.13744 0.515298 1.04735 0.572272 0.996224 0.660549C0.572577 1.39619 0.4551 2.20947 0.657793 3.01273C0.768575 3.45098 0.962137 3.83727 1.18674 4.15031C1.07901 4.09585 0.97492 4.0276 0.876921 3.94621C0.786835 3.86983 0.660837 3.85543 0.554316 3.90614C0.448405 3.95811 0.38084 4.0683 0.38084 4.18913C0.38084 5.56838 1.21961 6.48872 2.00299 6.96955C1.87639 6.9539 1.7443 6.9251 1.611 6.88315C1.49657 6.84746 1.37239 6.88315 1.29326 6.97581C1.21413 7.06784 1.19526 7.19932 1.24457 7.31139C1.68465 8.31249 2.51855 9.00118 3.55028 9.25098C2.64942 9.79504 1.44361 10.0618 0.33945 9.9309C0.196408 9.91024 0.0600618 10.0035 0.0150189 10.145C-0.030024 10.2865 0.0290188 10.4418 0.155017 10.5144C1.83013 11.4817 3.34454 11.8273 4.65322 11.8273C6.55781 11.8273 8.02779 11.096 8.92256 10.4844C11.3348 8.83777 12.8382 5.88142 12.6289 3.23624C13.0154 2.94261 13.5936 2.40042 13.9521 1.81754C14.0264 1.69984 14.013 1.54457 13.9205 1.44064Z" fill="#FBF3E8"/>
</svg>
